<svg width="42" height="42" viewBox="0 0 42 42" fill="none" xmlns="http://www.w3.org/2000/svg">
<mask id="mask0_46_145" style="mask-type:alpha" maskUnits="userSpaceOnUse" x="0" y="0" width="42" height="42">
<rect width="42" height="42" fill="#D9D9D9"/>
</mask>
<g mask="url(#mask0_46_145)">
<path d="M16.1881 38.5L15.4881 32.9C15.1089 32.7542 14.7516 32.5792 14.4162 32.375C14.0808 32.1708 13.7527 31.9521 13.4318 31.7188L8.22559 33.9062L3.41309 25.5938L7.91934 22.1813C7.89017 21.9771 7.87559 21.7802 7.87559 21.5906V20.4094C7.87559 20.2198 7.89017 20.0229 7.91934 19.8187L3.41309 16.4062L8.22559 8.09375L13.4318 10.2812C13.7527 10.0479 14.0881 9.82917 14.4381 9.625C14.7881 9.42083 15.1381 9.24583 15.4881 9.1L16.1881 3.5H25.8131L26.5131 9.1C26.8923 9.24583 27.2495 9.42083 27.585 9.625C27.9204 9.82917 28.2485 10.0479 28.5693 10.2812L33.7756 8.09375L38.5881 16.4062L34.0818 19.8187C34.111 20.0229 34.1256 20.2198 34.1256 20.4094V21.5906C34.1256 21.7802 34.0964 21.9771 34.0381 22.1813L38.5443 25.5938L33.7318 33.9062L28.5693 31.7188C28.2485 31.9521 27.9131 32.1708 27.5631 32.375C27.2131 32.5792 26.8631 32.7542 26.5131 32.9L25.8131 38.5H16.1881ZM21.0881 27.125C22.7798 27.125 24.2235 26.5271 25.4193 25.3313C26.6152 24.1354 27.2131 22.6917 27.2131 21C27.2131 19.3083 26.6152 17.8646 25.4193 16.6688C24.2235 15.4729 22.7798 14.875 21.0881 14.875C19.3673 14.875 17.9162 15.4729 16.735 16.6688C15.5537 17.8646 14.9631 19.3083 14.9631 21C14.9631 22.6917 15.5537 24.1354 16.735 25.3313C17.9162 26.5271 19.3673 27.125 21.0881 27.125Z" fill="#00BEBB"/>
</g>
</svg>
