<svg width="42" height="42" viewBox="0 0 42 42" fill="none" xmlns="http://www.w3.org/2000/svg">
<mask id="mask0_46_157" style="mask-type:alpha" maskUnits="userSpaceOnUse" x="0" y="0" width="42" height="42">
<rect width="42" height="42" fill="#D9D9D9"/>
</mask>
<g mask="url(#mask0_46_157)">
<path d="M8.83721 39.1562L6.38721 36.6625L11.5497 31.5H7.61221V28H17.4997V37.8875H13.9997V33.9938L8.83721 39.1562ZM20.9997 38.5V24.5H6.99971V7C6.99971 6.0375 7.34242 5.21354 8.02783 4.52813C8.71325 3.84271 9.53721 3.5 10.4997 3.5H24.4997L34.9997 14V35C34.9997 35.9625 34.657 36.7865 33.9716 37.4719C33.2862 38.1573 32.4622 38.5 31.4997 38.5H20.9997ZM22.7497 15.75H31.4997L22.7497 7V15.75Z" fill="#00BEBB"/>
</g>
</svg>
