<svg width="42" height="42" viewBox="0 0 42 42" fill="none" xmlns="http://www.w3.org/2000/svg">
<mask id="mask0_46_175" style="mask-type:alpha" maskUnits="userSpaceOnUse" x="0" y="0" width="42" height="42">
<rect width="42" height="42" fill="#D9D9D9"/>
</mask>
<g mask="url(#mask0_46_175)">
<path d="M7 36.75V29.3125L30.0563 6.3C30.4063 5.95 30.8 5.6875 31.2375 5.5125C31.675 5.3375 32.1125 5.25 32.55 5.25C33.0167 5.25 33.4615 5.3375 33.8844 5.5125C34.3073 5.6875 34.6792 5.95 35 6.3L37.45 8.75C37.8 9.07083 38.0625 9.44271 38.2375 9.86563C38.4125 10.2885 38.5 10.7333 38.5 11.2C38.5 11.6375 38.4125 12.075 38.2375 12.5125C38.0625 12.95 37.8 13.3438 37.45 13.6938L14.4375 36.75H7ZM32.6375 13.6063L35 11.2437L32.5062 8.75L30.1438 11.1125L32.6375 13.6063ZM24.5 36.75C26.6583 36.75 28.6563 36.2104 30.4938 35.1313C32.3313 34.0521 33.25 32.55 33.25 30.625C33.25 29.575 32.9729 28.6708 32.4188 27.9125C31.8646 27.1542 31.1208 26.4979 30.1875 25.9437L27.6063 28.525C28.2771 28.8167 28.8021 29.1375 29.1813 29.4875C29.5604 29.8375 29.75 30.2167 29.75 30.625C29.75 31.2958 29.2177 31.901 28.1531 32.4406C27.0885 32.9802 25.8708 33.25 24.5 33.25C24.0042 33.25 23.5885 33.4177 23.2531 33.7531C22.9177 34.0885 22.75 34.5042 22.75 35C22.75 35.4958 22.9177 35.9115 23.2531 36.2469C23.5885 36.5823 24.0042 36.75 24.5 36.75ZM8.00625 23.3625L10.6313 20.7375C10.0479 20.5042 9.58854 20.2635 9.25313 20.0156C8.91771 19.7677 8.75 19.5125 8.75 19.25C8.75 18.9 9.0125 18.55 9.5375 18.2C10.0625 17.85 11.1708 17.3104 12.8625 16.5812C15.4292 15.4729 17.1354 14.4667 17.9813 13.5625C18.8271 12.6583 19.25 11.6375 19.25 10.5C19.25 8.89583 18.6083 7.61979 17.325 6.67188C16.0417 5.72396 14.35 5.25 12.25 5.25C10.9375 5.25 9.76354 5.48333 8.72813 5.95C7.69271 6.41667 6.89792 6.98542 6.34375 7.65625C6.02292 8.03542 5.89167 8.45833 5.95 8.925C6.00833 9.39167 6.22708 9.77083 6.60625 10.0625C6.98542 10.3833 7.40833 10.5146 7.875 10.4563C8.34167 10.3979 8.73542 10.2083 9.05625 9.8875C9.46458 9.47917 9.91667 9.1875 10.4125 9.0125C10.9083 8.8375 11.5208 8.75 12.25 8.75C13.4458 8.75 14.3281 8.925 14.8969 9.275C15.4656 9.625 15.75 10.0333 15.75 10.5C15.75 10.9083 15.4948 11.2802 14.9844 11.6156C14.474 11.951 13.3 12.5417 11.4625 13.3875C9.12917 14.4083 7.51042 15.3344 6.60625 16.1656C5.70208 16.9969 5.25 18.025 5.25 19.25C5.25 20.1833 5.49792 20.9781 5.99375 21.6344C6.48958 22.2906 7.16042 22.8667 8.00625 23.3625Z" fill="#00BEBB"/>
</g>
</svg>
