<svg width="42" height="42" viewBox="0 0 42 42" fill="none" xmlns="http://www.w3.org/2000/svg">
<mask id="mask0_50_211" style="mask-type:alpha" maskUnits="userSpaceOnUse" x="0" y="0" width="42" height="42">
<rect width="42" height="42" fill="#D9D9D9"/>
</mask>
<g mask="url(#mask0_50_211)">
<path d="M10.5 38.5C9.5375 38.5 8.71354 38.1573 8.02813 37.4719C7.34271 36.7865 7 35.9625 7 35V17.5C7 16.5375 7.34271 15.7135 8.02813 15.0281C8.71354 14.3427 9.5375 14 10.5 14H12.25V10.5C12.25 8.07917 13.1031 6.01562 14.8094 4.30937C16.5156 2.60312 18.5792 1.75 21 1.75C23.4208 1.75 25.4844 2.60312 27.1906 4.30937C28.8969 6.01562 29.75 8.07917 29.75 10.5V14H31.5C32.4625 14 33.2865 14.3427 33.9719 15.0281C34.6573 15.7135 35 16.5375 35 17.5V35C35 35.9625 34.6573 36.7865 33.9719 37.4719C33.2865 38.1573 32.4625 38.5 31.5 38.5H10.5ZM21 29.75C21.9625 29.75 22.7865 29.4073 23.4719 28.7219C24.1573 28.0365 24.5 27.2125 24.5 26.25C24.5 25.2875 24.1573 24.4635 23.4719 23.7781C22.7865 23.0927 21.9625 22.75 21 22.75C20.0375 22.75 19.2135 23.0927 18.5281 23.7781C17.8427 24.4635 17.5 25.2875 17.5 26.25C17.5 27.2125 17.8427 28.0365 18.5281 28.7219C19.2135 29.4073 20.0375 29.75 21 29.75ZM15.75 14H26.25V10.5C26.25 9.04167 25.7396 7.80208 24.7188 6.78125C23.6979 5.76042 22.4583 5.25 21 5.25C19.5417 5.25 18.3021 5.76042 17.2812 6.78125C16.2604 7.80208 15.75 9.04167 15.75 10.5V14Z" fill="#00BEBB"/>
</g>
</svg>
