<svg width="42" height="42" viewBox="0 0 42 42" fill="none" xmlns="http://www.w3.org/2000/svg">
<mask id="mask0_50_199" style="mask-type:alpha" maskUnits="userSpaceOnUse" x="0" y="0" width="42" height="42">
<rect width="42" height="42" fill="#D9D9D9"/>
</mask>
<g mask="url(#mask0_50_199)">
<path d="M21 38.5C18.6083 38.5 16.3479 38.0406 14.2188 37.1219C12.0896 36.2031 10.2302 34.949 8.64062 33.3594C7.05104 31.7698 5.79688 29.9104 4.87813 27.7812C3.95937 25.6521 3.5 23.3917 3.5 21C3.5 18.5792 3.97396 16.3042 4.92188 14.175C5.86979 12.0458 7.15313 10.1937 8.77188 8.61875C10.3906 7.04375 12.2792 5.79688 14.4375 4.87813C16.5958 3.95937 18.9 3.5 21.35 3.5C23.6833 3.5 25.8854 3.90104 27.9563 4.70312C30.0271 5.50521 31.8427 6.61354 33.4031 8.02813C34.9635 9.44271 36.2031 11.1198 37.1219 13.0594C38.0406 14.999 38.5 17.0917 38.5 19.3375C38.5 22.6917 37.4792 25.2656 35.4375 27.0594C33.3958 28.8531 30.9167 29.75 28 29.75H24.7625C24.5 29.75 24.3177 29.8229 24.2156 29.9688C24.1135 30.1146 24.0625 30.275 24.0625 30.45C24.0625 30.8 24.2812 31.3031 24.7188 31.9594C25.1562 32.6156 25.375 33.3667 25.375 34.2125C25.375 35.6708 24.974 36.75 24.1719 37.45C23.3698 38.15 22.3125 38.5 21 38.5ZM11.375 22.75C12.1333 22.75 12.7604 22.5021 13.2563 22.0062C13.7521 21.5104 14 20.8833 14 20.125C14 19.3667 13.7521 18.7396 13.2563 18.2438C12.7604 17.7479 12.1333 17.5 11.375 17.5C10.6167 17.5 9.98958 17.7479 9.49375 18.2438C8.99792 18.7396 8.75 19.3667 8.75 20.125C8.75 20.8833 8.99792 21.5104 9.49375 22.0062C9.98958 22.5021 10.6167 22.75 11.375 22.75ZM16.625 15.75C17.3833 15.75 18.0104 15.5021 18.5062 15.0063C19.0021 14.5104 19.25 13.8833 19.25 13.125C19.25 12.3667 19.0021 11.7396 18.5062 11.2438C18.0104 10.7479 17.3833 10.5 16.625 10.5C15.8667 10.5 15.2396 10.7479 14.7438 11.2438C14.2479 11.7396 14 12.3667 14 13.125C14 13.8833 14.2479 14.5104 14.7438 15.0063C15.2396 15.5021 15.8667 15.75 16.625 15.75ZM25.375 15.75C26.1333 15.75 26.7604 15.5021 27.2562 15.0063C27.7521 14.5104 28 13.8833 28 13.125C28 12.3667 27.7521 11.7396 27.2562 11.2438C26.7604 10.7479 26.1333 10.5 25.375 10.5C24.6167 10.5 23.9896 10.7479 23.4938 11.2438C22.9979 11.7396 22.75 12.3667 22.75 13.125C22.75 13.8833 22.9979 14.5104 23.4938 15.0063C23.9896 15.5021 24.6167 15.75 25.375 15.75ZM30.625 22.75C31.3833 22.75 32.0104 22.5021 32.5063 22.0062C33.0021 21.5104 33.25 20.8833 33.25 20.125C33.25 19.3667 33.0021 18.7396 32.5063 18.2438C32.0104 17.7479 31.3833 17.5 30.625 17.5C29.8667 17.5 29.2396 17.7479 28.7438 18.2438C28.2479 18.7396 28 19.3667 28 20.125C28 20.8833 28.2479 21.5104 28.7438 22.0062C29.2396 22.5021 29.8667 22.75 30.625 22.75Z" fill="#00BEBB"/>
</g>
</svg>
