<svg width="42" height="42" viewBox="0 0 42 42" fill="none" xmlns="http://www.w3.org/2000/svg">
<mask id="mask0_46_163" style="mask-type:alpha" maskUnits="userSpaceOnUse" x="0" y="0" width="42" height="42">
<rect width="42" height="42" fill="#D9D9D9"/>
</mask>
<g mask="url(#mask0_46_163)">
<path d="M15.8813 34.65C12.3229 33.8917 9.36979 32.0833 7.02188 29.225C4.67396 26.3667 3.5 23.0417 3.5 19.25C3.5 14.875 5.03125 11.1562 8.09375 8.09375C11.1562 5.03125 14.875 3.5 19.25 3.5C23.625 3.5 27.3438 5.03125 30.4062 8.09375C33.4688 11.1562 35 14.875 35 19.25C35 20.5042 34.8542 21.7219 34.5625 22.9031C34.2708 24.0844 33.8625 25.2 33.3375 26.25H22.6625C20.7375 26.25 19.1042 26.9354 17.7625 28.3063C16.4208 29.6771 15.75 31.325 15.75 33.25C15.75 33.4833 15.7573 33.7167 15.7719 33.95C15.7865 34.1833 15.8229 34.4167 15.8813 34.65ZM22.75 25.2L25.2 22.75L21 18.55V10.5H17.5V19.95L22.75 25.2ZM22.75 36.75H33.25C34.2125 36.75 35.0365 36.4073 35.7219 35.7219C36.4073 35.0365 36.75 34.2125 36.75 33.25C36.75 32.2875 36.4073 31.4635 35.7219 30.7781C35.0365 30.0927 34.2125 29.75 33.25 29.75H22.75C21.7875 29.75 20.9635 30.0927 20.2781 30.7781C19.5927 31.4635 19.25 32.2875 19.25 33.25C19.25 34.2125 19.5927 35.0365 20.2781 35.7219C20.9635 36.4073 21.7875 36.75 22.75 36.75ZM22.75 35C22.2542 35 21.8385 34.8323 21.5031 34.4969C21.1677 34.1615 21 33.7458 21 33.25C21 32.7542 21.1677 32.3385 21.5031 32.0031C21.8385 31.6677 22.2542 31.5 22.75 31.5C23.2458 31.5 23.6615 31.6677 23.9969 32.0031C24.3323 32.3385 24.5 32.7542 24.5 33.25C24.5 33.7458 24.3323 34.1615 23.9969 34.4969C23.6615 34.8323 23.2458 35 22.75 35ZM28 35C27.5042 35 27.0885 34.8323 26.7531 34.4969C26.4177 34.1615 26.25 33.7458 26.25 33.25C26.25 32.7542 26.4177 32.3385 26.7531 32.0031C27.0885 31.6677 27.5042 31.5 28 31.5C28.4958 31.5 28.9115 31.6677 29.2469 32.0031C29.5823 32.3385 29.75 32.7542 29.75 33.25C29.75 33.7458 29.5823 34.1615 29.2469 34.4969C28.9115 34.8323 28.4958 35 28 35ZM33.25 35C32.7542 35 32.3385 34.8323 32.0031 34.4969C31.6677 34.1615 31.5 33.7458 31.5 33.25C31.5 32.7542 31.6677 32.3385 32.0031 32.0031C32.3385 31.6677 32.7542 31.5 33.25 31.5C33.7458 31.5 34.1615 31.6677 34.4969 32.0031C34.8323 32.3385 35 32.7542 35 33.25C35 33.7458 34.8323 34.1615 34.4969 34.4969C34.1615 34.8323 33.7458 35 33.25 35Z" fill="#00BEBB"/>
</g>
</svg>
