<svg width="42" height="42" viewBox="0 0 42 42" fill="none" xmlns="http://www.w3.org/2000/svg">
<mask id="mask0_46_187" style="mask-type:alpha" maskUnits="userSpaceOnUse" x="0" y="0" width="42" height="42">
<rect width="42" height="42" fill="#D9D9D9"/>
</mask>
<g mask="url(#mask0_46_187)">
<path d="M12.25 15.75H29.75V12.25H12.25V15.75ZM31.5 40.25C29.3708 40.25 27.5115 39.5865 25.9219 38.2594C24.3323 36.9323 23.3333 35.2625 22.925 33.25H25.6375C26.0167 34.5333 26.7385 35.5833 27.8031 36.4C28.8677 37.2167 30.1 37.625 31.5 37.625C33.1917 37.625 34.6354 37.0271 35.8313 35.8313C37.0271 34.6354 37.625 33.1917 37.625 31.5C37.625 29.8083 37.0271 28.3646 35.8313 27.1688C34.6354 25.9729 33.1917 25.375 31.5 25.375C30.6542 25.375 29.8667 25.5281 29.1375 25.8344C28.4083 26.1406 27.7667 26.5708 27.2125 27.125H29.75V29.75H22.75V22.75H25.375V25.2438C26.1625 24.4854 27.0812 23.8802 28.1312 23.4281C29.1812 22.976 30.3042 22.75 31.5 22.75C33.9208 22.75 35.9844 23.6031 37.6906 25.3094C39.3969 27.0156 40.25 29.0792 40.25 31.5C40.25 33.9208 39.3969 35.9844 37.6906 37.6906C35.9844 39.3969 33.9208 40.25 31.5 40.25ZM18.5063 36.75H8.75C7.7875 36.75 6.96354 36.4073 6.27813 35.7219C5.59271 35.0365 5.25 34.2125 5.25 33.25V8.75C5.25 7.7875 5.59271 6.96354 6.27813 6.27813C6.96354 5.59271 7.7875 5.25 8.75 5.25H33.25C34.2125 5.25 35.0365 5.59271 35.7219 6.27813C36.4073 6.96354 36.75 7.7875 36.75 8.75V18.5063C35.9042 18.1854 35.0437 17.9375 34.1687 17.7625C33.2937 17.5875 32.4042 17.5 31.5 17.5C30.275 17.5 29.0938 17.6531 27.9563 17.9594C26.8188 18.2656 25.7396 18.6958 24.7188 19.25H12.25V22.75H20.5625C20.1542 23.275 19.775 23.8292 19.425 24.4125C19.075 24.9958 18.7688 25.6083 18.5063 26.25H12.25V29.75H17.5875C17.5292 30.0417 17.5 30.326 17.5 30.6031V31.5C17.5 32.4042 17.5875 33.2937 17.7625 34.1687C17.9375 35.0437 18.1854 35.9042 18.5063 36.75Z" fill="#00BEBB"/>
</g>
</svg>
